<?xml version="1.0" encoding="UTF-8" standalone="no"?>
<svg
   xmlns:dc="http://purl.org/dc/elements/1.1/"
   xmlns:cc="http://creativecommons.org/ns#"
   xmlns:rdf="http://www.w3.org/1999/02/22-rdf-syntax-ns#"
   xmlns:svg="http://www.w3.org/2000/svg"
   xmlns="http://www.w3.org/2000/svg"
   xmlns:sodipodi="http://sodipodi.sourceforge.net/DTD/sodipodi-0.dtd"
   xmlns:inkscape="http://www.inkscape.org/namespaces/inkscape"
   width="22.896006"
   height="20.102751"
   viewBox="0 0 22.896006 20.102751"
   fill="none"
   version="1.1"
   id="svg15"
   sodipodi:docname="alert-triangle.svg"
   inkscape:version="1.0.2 (e86c870879, 2021-01-15)">
  <metadata
     id="metadata19">
    <rdf:RDF>
      <cc:Work
         rdf:about="">
        <dc:format>image/svg+xml</dc:format>
        <dc:type
           rdf:resource="http://purl.org/dc/dcmitype/StillImage" />
        <dc:title></dc:title>
      </cc:Work>
    </rdf:RDF>
  </metadata>
  <sodipodi:namedview
     pagecolor="#ffffff"
     bordercolor="#666666"
     borderopacity="1"
     objecttolerance="10"
     gridtolerance="10"
     guidetolerance="10"
     inkscape:pageopacity="0"
     inkscape:pageshadow="2"
     inkscape:window-width="1896"
     inkscape:window-height="1020"
     id="namedview17"
     showgrid="false"
     fit-margin-top="0"
     fit-margin-left="0"
     fit-margin-right="0"
     fit-margin-bottom="0"
     inkscape:zoom="27.708333"
     inkscape:cx="2.6058926"
     inkscape:cy="10.10275"
     inkscape:window-x="8"
     inkscape:window-y="44"
     inkscape:window-maximized="0"
     inkscape:current-layer="svg15" />
  <g
     clip-path="url(#clip0)"
     id="g8"
     transform="translate(-0.55200213,-1.89725)"
     style="stroke:#000000">
    <path
       d="M 10.29,3.86 1.82002,18 c -0.17463,0.3024 -0.26703,0.6453 -0.26801,0.9945 -9.8e-4,0.3492 0.0895,0.6926 0.26244,0.996 0.17293,0.3034 0.4223,0.5562 0.72328,0.7334 C 2.83871,20.901 3.18082,20.9962 3.53002,21 H 20.47 c 0.3492,-0.0038 0.6913,-0.099 0.9923,-0.2761 0.301,-0.1772 0.5504,-0.43 0.7233,-0.7334 0.1729,-0.3034 0.2634,-0.6468 0.2624,-0.996 C 22.4471,18.6453 22.3547,18.3024 22.18,18 L 13.71,3.86 C 13.5318,3.56611 13.2807,3.32312 12.9812,3.15448 12.6817,2.98585 12.3438,2.89725 12,2.89725 c -0.3437,0 -0.6816,0.0886 -0.9812,0.25723 C 10.7193,3.32312 10.4683,3.56611 10.29,3.86 Z"
       stroke="#9b730c"
       stroke-width="2"
       stroke-linecap="round"
       stroke-linejoin="round"
       id="path2"
       style="stroke:#000000" />
    <path
       d="m 12,17 h 0.01"
       stroke="#9b730c"
       stroke-width="2"
       stroke-linecap="round"
       stroke-linejoin="round"
       id="path4"
       style="stroke:#000000" />
    <path
       d="m 12,9 v 4"
       stroke="#9b730c"
       stroke-width="2"
       stroke-linecap="round"
       stroke-linejoin="round"
       id="path6"
       style="stroke:#000000" />
  </g>
  <defs
     id="defs13">
    <clipPath
       id="clip0">
      <rect
         width="24"
         height="24"
         fill="#ffffff"
         id="rect10"
         x="0"
         y="0" />
    </clipPath>
  </defs>
</svg>
