<?xml version="1.0" encoding="UTF-8" standalone="no"?>
<svg
   xmlns:dc="http://purl.org/dc/elements/1.1/"
   xmlns:cc="http://creativecommons.org/ns#"
   xmlns:rdf="http://www.w3.org/1999/02/22-rdf-syntax-ns#"
   xmlns:svg="http://www.w3.org/2000/svg"
   xmlns="http://www.w3.org/2000/svg"
   xmlns:sodipodi="http://sodipodi.sourceforge.net/DTD/sodipodi-0.dtd"
   xmlns:inkscape="http://www.inkscape.org/namespaces/inkscape"
   width="18.000002"
   height="21.9998"
   viewBox="0 0 18.000002 21.9998"
   fill="none"
   version="1.1"
   id="svg4"
   sodipodi:docname="Profile.svg"
   inkscape:version="1.0.2 (e86c870879, 2021-01-15)">
  <metadata
     id="metadata10">
    <rdf:RDF>
      <cc:Work
         rdf:about="">
        <dc:format>image/svg+xml</dc:format>
        <dc:type
           rdf:resource="http://purl.org/dc/dcmitype/StillImage" />
        <dc:title></dc:title>
      </cc:Work>
    </rdf:RDF>
  </metadata>
  <defs
     id="defs8" />
  <sodipodi:namedview
     pagecolor="#ffffff"
     bordercolor="#666666"
     borderopacity="1"
     objecttolerance="10"
     gridtolerance="10"
     guidetolerance="10"
     inkscape:pageopacity="0"
     inkscape:pageshadow="2"
     inkscape:window-width="1896"
     inkscape:window-height="1020"
     id="namedview6"
     showgrid="false"
     fit-margin-top="0"
     fit-margin-left="0"
     fit-margin-right="0"
     fit-margin-bottom="0"
     inkscape:zoom="27.708333"
     inkscape:cx="0.15789746"
     inkscape:cy="9.556391"
     inkscape:window-x="8"
     inkscape:window-y="44"
     inkscape:window-maximized="0"
     inkscape:current-layer="svg4" />
  <path
     fill-rule="evenodd"
     clip-rule="evenodd"
     d="m 9.0004027,0 c -3.31374,0 -6.00003,2.68629 -6.00003,6 0,3.3137 2.68629,6 6.00003,6 3.3137003,0 6.0000003,-2.6863 6.0000003,-6 0,-3.31371 -2.6863,-6 -6.0000003,-6 z m 0,2 c 2.2091003,0 4.0000003,1.79086 4.0000003,4 0,2.20914 -1.7909,4 -4.0000003,4 -2.20917,0 -4.00003,-1.79086 -4.00003,-4 0,-2.20914 1.79086,-4 4.00003,-4 z m -2.44159,11.118 c -0.87493,0.0667 -1.75932,0.2041 -2.63166,0.4097 -1.6837,0.3814 -3.03068998,1.1434 -3.60400998,2.4098 -0.21623,0.4952 -0.32495,1.0255 -0.323119998466,1.5623 C -6.2727847e-4,18.0328 0.10721272,18.5637 0.31570272,19.0495 c 0.55049,1.2517 1.74057998,1.9601 3.34757998,2.3528 l 0.28787,0.0661 c 0.84865,0.2105 1.73331,0.3523 2.62388,0.4188 0.07585,0.0245 0.25663,0.0472 0.45397,0.0583 l 0.1623,0.0067 c 0.0834,0.0021 0.1781,0.0027 0.3192,0.0027 1.2801,0.0774 2.6071003,0.0549 3.9280003,-0.0688 0.7039,-0.053 1.4125,-0.1542 2.1152,-0.3025 l 0.5258,-0.1201 c 1.7353,-0.3764 3.0347,-1.0924 3.6039,-2.4126 0.4221,-0.9803 0.4221,-2.1177 2e-4,-3.0975 -0.5678,-1.317 -1.8507,-2.0269 -3.6173,-2.4272 -0.6931,-0.1627 -1.3974,-0.2831 -2.1068,-0.36 l -0.5186,-0.0482 c -1.6242003,-0.1576 -3.2578003,-0.1576 -4.8820903,0 z m 4.6222903,1.9844 0.0136,0.0011 c 0.7723,0.0582 1.54,0.1741 2.2973,0.3471 1.2449,0.2744 2.0898,0.7293 2.3571,1.3323 0.2012,0.4547 0.2012,0.9831 -2e-4,1.4383 -0.2497,0.5634 -1.0085,0.9988 -2.1052,1.2648 l -0.2402,0.0544 c -0.7722,0.1844 -1.5373,0.3032 -2.3074,0.3597 -1.195,0.1087 -2.3829003,0.1283 -3.5679003,0.0598 l -0.4201,-0.0077 c -0.1166,-0.0064 -0.21487,-0.0184 -0.30595,-0.038 -0.72124,-0.0583 -1.37024,-0.1504 -2.00038,-0.284 l -0.37624,-0.0852 c -1.24881,-0.2619 -2.10113,-0.7187 -2.37747,-1.33 -0.0967,-0.2192 -0.14835,-0.4666 -0.14804,-0.7171 -8.6e-4,-0.2491 0.05011,-0.4909 0.14905,-0.7115 0.26869,-0.5771 1.17193,-1.0742 2.3533,-1.3346 0.76279,-0.1749 1.53007,-0.2908 2.30208,-0.3482 1.46555,-0.1382 2.92525,-0.1382 4.3766503,-0.0012 z"
     fill="#000000"
     id="path2" />
</svg>
