<svg width="24" height="24" viewBox="0 0 24 24" fill="none" xmlns="http://www.w3.org/2000/svg">
<path fill-rule="evenodd" clip-rule="evenodd" d="M12.0004 1C8.68666 1 6.00037 3.68629 6.00037 7C6.00037 10.3137 8.68666 13 12.0004 13C15.3141 13 18.0004 10.3137 18.0004 7C18.0004 3.68629 15.3141 1 12.0004 1ZM12.0004 3C14.2095 3 16.0004 4.79086 16.0004 7C16.0004 9.20914 14.2095 11 12.0004 11C9.79123 11 8.00037 9.20914 8.00037 7C8.00037 4.79086 9.79123 3 12.0004 3ZM9.55881 14.118C8.68388 14.1847 7.79949 14.3221 6.92715 14.5277C5.24345 14.9091 3.89646 15.6711 3.32314 16.9375C3.10691 17.4327 2.99819 17.963 3.00002 18.4998C2.99937 19.0328 3.10721 19.5637 3.3157 20.0495C3.86619 21.3012 5.05628 22.0096 6.66328 22.4023L6.95115 22.4684C7.7998 22.6789 8.68446 22.8207 9.57503 22.8872C9.65088 22.9117 9.83166 22.9344 10.029 22.9455L10.1913 22.9522C10.2747 22.9543 10.3694 22.9549 10.5105 22.9549C11.7906 23.0323 13.1176 23.0098 14.4385 22.8861C15.1424 22.8331 15.851 22.7319 16.5537 22.5836L17.0795 22.4635C18.8148 22.0871 20.1142 21.3711 20.6834 20.0509C21.1055 19.0706 21.1055 17.9332 20.6836 16.9534C20.1158 15.6364 18.8329 14.9265 17.0663 14.5262C16.3732 14.3635 15.6689 14.2431 14.9595 14.1662L14.4409 14.118C12.8167 13.9604 11.1831 13.9604 9.55881 14.118ZM14.1811 16.1024L14.1947 16.1035C14.967 16.1617 15.7347 16.2776 16.492 16.4506C17.7369 16.725 18.5818 17.1799 18.8491 17.7829C19.0503 18.2376 19.0503 18.766 18.8489 19.2212C18.5992 19.7846 17.8404 20.22 16.7437 20.486L16.5035 20.5404C15.7313 20.7248 14.9662 20.8436 14.1961 20.9001C13.0011 21.0088 11.8132 21.0284 10.6282 20.9599L10.2081 20.9522C10.0915 20.9458 9.99323 20.9338 9.90215 20.9142C9.18091 20.8559 8.53191 20.7638 7.90177 20.6302L7.52553 20.545C6.27672 20.2831 5.4244 19.8263 5.14806 19.215C5.05136 18.9958 4.99971 18.7484 5.00002 18.4979C4.99916 18.2488 5.05013 18.007 5.14907 17.7864C5.41776 17.2093 6.321 16.7122 7.50237 16.4518C8.26516 16.2769 9.03244 16.161 9.80445 16.1036C11.27 15.9654 12.7297 15.9654 14.1811 16.1024Z" fill="black"/>
</svg>
