<svg width="16" height="16" viewBox="0 0 16 16" fill="none" xmlns="http://www.w3.org/2000/svg">
<circle cx="8" cy="8" r="8" fill="#4D4C4B"/>
<path d="M6.98772 9.66004H8.48574V9.52565C8.49365 8.7549 8.77033 8.39521 9.39483 8.01972C10.134 7.58098 10.6162 6.99996 10.6162 6.0711C10.6162 4.6877 9.50155 3.88138 7.93238 3.88138C6.4976 3.88138 5.32764 4.63237 5.29207 6.2134H6.90471C6.92843 5.56913 7.40669 5.22525 7.92448 5.22525C8.45807 5.22525 8.8889 5.58098 8.8889 6.13039C8.8889 6.64818 8.51341 6.99205 8.02724 7.30035C7.36321 7.71932 6.99167 8.14225 6.98772 9.52565V9.66004ZM7.76637 12.1897C8.2723 12.1897 8.71104 11.7668 8.71499 11.2411C8.71104 10.7233 8.2723 10.3004 7.76637 10.3004C7.24463 10.3004 6.8138 10.7233 6.81776 11.2411C6.8138 11.7668 7.24463 12.1897 7.76637 12.1897Z" fill="white"/>
</svg>
